<svg xmlns="http://www.w3.org/2000/svg" viewBox="0 0 320 420">
  <defs>
    <linearGradient id="bg" x1="0" y1="0" x2="1" y2="1">
      <stop offset="0%" stop-color="#183228"/>
      <stop offset="100%" stop-color="#0f1714"/>
    </linearGradient>
  </defs>
  <rect width="320" height="420" fill="url(#bg)"/>
  <circle cx="78" cy="72" r="54" fill="#34d399" opacity=".18"/>
  <rect x="0" y="308" width="320" height="112" fill="#10261d"/>
  <ellipse cx="160" cy="192" rx="76" ry="91" fill="#c89268"/>
  <path d="M92 171c8-66 49-108 97-108 42 0 77 28 91 82-17-10-37-14-60-12-45 2-88 17-128 38z" fill="#231b18"/>
  <path d="M135 193c6 0 12 1 18 4" fill="none" stroke="#201613" stroke-width="5" stroke-linecap="round"/>
  <path d="M176 197c7-3 13-4 19-4" fill="none" stroke="#201613" stroke-width="5" stroke-linecap="round"/>
  <path d="M145 229c11 6 22 6 33 0" fill="none" stroke="#73342f" stroke-width="5" stroke-linecap="round"/>
  <path d="M121 247c14 9 28 13 41 13 13 0 26-4 39-13" fill="none" stroke="#201613" stroke-width="10" stroke-linecap="round"/>
  <path d="M73 392c15-74 52-109 89-109 43 0 83 35 97 109" fill="#166534"/>
</svg>
