<svg xmlns="http://www.w3.org/2000/svg" viewBox="0 0 320 420">
  <defs>
    <linearGradient id="bg" x1="0" y1="0" x2="1" y2="1">
      <stop offset="0%" stop-color="#16345c"/>
      <stop offset="100%" stop-color="#0f1726"/>
    </linearGradient>
  </defs>
  <rect width="320" height="420" fill="url(#bg)"/>
  <circle cx="252" cy="74" r="54" fill="#f0c030" opacity=".25"/>
  <rect x="0" y="308" width="320" height="112" fill="#12361e"/>
  <ellipse cx="160" cy="190" rx="76" ry="90" fill="#d9a274"/>
  <path d="M104 176c2-58 39-101 88-101 44 0 78 36 81 87-14-12-37-18-66-17-50 1-80 12-103 31z" fill="#1e293b"/>
  <path d="M126 245c11 18 24 27 38 27 15 0 29-9 41-27" fill="none" stroke="#8d5a39" stroke-width="6" stroke-linecap="round"/>
  <circle cx="135" cy="194" r="7" fill="#1f1720"/>
  <circle cx="194" cy="194" r="7" fill="#1f1720"/>
  <path d="M143 224c13 8 28 8 41 0" fill="none" stroke="#7e2f2f" stroke-width="5" stroke-linecap="round"/>
  <path d="M73 392c17-74 53-109 91-109 37 0 78 35 95 109" fill="#1b8a3e"/>
  <path d="M137 281h48l12 28-36 29-36-29z" fill="#ffffff"/>
</svg>
